<svg xmlns="http://www.w3.org/2000/svg" width="718" height="386.604" viewBox="0 0 718 386.604">
  <g>
    <path fill="rgb(241,241,241)" fill-rule="evenodd" d="M655.05696311 385.90982707V316.1772413s27.13350874 49.43742469 0 69.73258577z"/>
    <path fill="rgb(241,241,241)" fill-rule="evenodd" d="M656.73306962 385.89756555l-51.2894734-47.15793837s54.71159038 13.41396032 51.2894734 47.15793837z"/>
    <path fill="rgb(255,183,183)" fill-rule="evenodd" d="M376.8948603 133.88908061c.3059117.3150857.58653848.65384168.83927077 1.01311788l39.3153797-.96343558 4.58654743-8.39405278 13.55324134 5.27687895-6.67767911 15.65031924c-1.10811911 2.59707925-3.79487402 4.14983313-6.59443539 3.8111162l-44.41904113-5.37421925c-2.14533573 2.72016576-5.74742257 3.82697836-9.04677427 2.77980076s-5.60749563-4.0298318-5.79698879-7.49104633c-.18949316-3.46121452 1.7792058-6.67874094 4.94446021-8.08093655 3.16525442-1.40219561 6.8665736-.69646557 9.29599999 1.7724671l.00001924-.00000964z"/>
    <path fill="rgb(255,183,183)" fill-rule="evenodd" d="M505.05717694 373.02418219h-12.9268874l-6.15016085-49.93967475 19.07897319.00096396-.00192494 49.93871079z"/>
    <path fill="rgb(47,46,65)" fill-rule="evenodd" d="M508.35368241 385.5748716l-41.68249866-.00155197v-.52800697c.00062717-8.97382619 7.26403095-16.24835087 16.2239896-16.24882995h.00102984l25.45820107.00103143-.00072185 16.77735746z"/>
    <path fill="rgb(255,183,183)" fill-rule="evenodd" d="M387.6738016 372.73692326l-11.88742358-5.08679645 13.9317024-48.34432736 17.54480162 7.50729026-19.58908043 45.92383355z"/>
    <path fill="rgb(47,46,65)" fill-rule="evenodd" d="M385.78328643 385.5748716l-38.33119034-16.40074944.20710353-.4855929c3.52028152-8.25219809 13.05300343-12.08427763 21.29288673-8.55957368l.00096247.00040486 23.4113236 10.01708498-6.58108599 15.42842618z"/>
    <path fill="rgb(255,183,183)" fill-rule="evenodd" d="M442.22255228 144.70731917l-.93551743 15.17170538 27.32538606 2.9284987 28.5910295 3.0644165-8.41580698-23.03758733-46.56509115 1.87296675z"/>
    <path fill="rgb(47,46,65)" fill-rule="evenodd" d="M440.4269363 160.07397504l-10.6151584-74.11615696 18.39897138-6.03926221 5.4040087-7.42255853 26.29736599 1.5585821 3.8608092 8.66158916 14.02240525 6.63609565-2.15496247 40.08297278 1.57210239 33.53060637-56.78554204-2.89186836z"/>
    <path fill="rgb(47,46,65)" fill-rule="evenodd" d="M433.74576343 140.21229538l-18.71473737-7.49933763.07976922-.33352882c.0803467-.3362279 8.04551724-33.67336827 9.10317166-39.0304773 1.10178352-5.58130593 5.12696274-7.12433941 5.29791604-7.18716043l.1248704-.04615422 7.40644911 2.2577973 3.25270362 25.59735353-6.55014268 26.24150757z"/>
    <path fill="rgb(47,46,65)" fill-rule="evenodd" d="M397.30208536 363.95979432l-24.91220346-5.11810575 39.81694024-110.03925421 13.62719727-37.53276903s8.64314156-30.09362082 12.54812796-41.73942534l2.35660882-15.62599863 55.7862997 6.18437617s15.58097537 22.91755551 10.84758443 60.27179023l2.14083346 140.40056565-24.91220346 1.27952643-20.86662957-141.60089345-36.62306257 77.62459093s-11.54319746 33.12517607-19.80201652 40.30506828l-10.0074763 25.59052872z"/>
    <path fill="rgb(255,183,183)" fill-rule="evenodd" d="M474.15348485 165.29994747c.43868384-.01044904.87750737.01376347 1.31239043.07241238l26.02545957-29.5295619-3.02739021-9.07564687 13.07850474-6.36614937 6.91839199 15.54508415c1.14806239 2.5796199.45818338 5.6085901-1.69325767 7.43438626l-34.13568343 28.96880934c.53297852 3.42506796-1.10574132 6.82308985-4.1157048 8.53425623-3.00996347 1.71116639-6.76308367 1.37840941-9.42609862-.83573131-2.66301496-2.21414072-3.68023525-5.84764204-2.55478597-9.12567143 1.12544929-3.2780294 4.15872145-5.51656282 7.61817397-5.62215856v-.00002892z"/>
    <path fill="rgb(47,46,65)" fill-rule="evenodd" d="M499.41385094 138.71654395l-10.8564295-25.5764164 4.23426545-17.81529721 4.56223552-5.77284402c.67561617-.28935506 1.44133368-.28218514 2.11143011.01977074 1.68259354.67826844 3.11543665 2.7569145 4.25885646 6.1784864l10.174368 29.02553815-14.48472604 13.94076234z"/>
    <path fill="rgb(47,46,65)" fill-rule="evenodd" d="M443.08825239 63.01873743V43.7365207c0-14.27002672 11.55026569-25.83816904 25.79824048-25.83816904s25.79824048 11.56814232 25.79824048 25.83816904v19.28221672c-.00215347 1.91597644-1.55242196 3.46864433-3.46543759 3.47080113h-44.66564429c-1.91300278-.00217275-3.46325095-1.55483752-3.46539908-3.47080113z"/>
    <ellipse cx="463.585" cy="47.097" fill="rgb(255,183,183)" rx="18.914" ry="18.944"/>
    <path fill="rgb(47,46,65)" fill-rule="evenodd" d="M436.98500214 45.27910114c.01271919-11.28295224 9.14205523-20.42641367 20.40757156-20.43914721h3.8506648c11.26547849.01274965 20.39475006 9.15623275 20.40737906 20.4391472v.3856403h-8.1373173l-2.7754261-7.78368541-.55501593 7.7836854h-4.20547807l-1.40031174-3.92724399-.2801355 3.927244H436.9850214l-.00001925-.3856403z"/>
    <path fill="rgb(47,46,65)" fill-rule="evenodd" d="M461.72377877 68.65785182c-.77960768-1.05735425-.8850737-2.46867848-.27130006-3.63048046 4.0804248-7.77313973 9.79353925-22.13613413 2.2102658-30.99390764l-.54504478-.63646167h22.01506384v33.10365092l-19.99901416 3.53406557c-.20247025.0358842-.40767746.05403023-.61329327.05423217-1.10748009-.00002968-2.14768183-.53231545-2.79667737-1.4310989z"/>
    <path fill="rgb(159,97,106)" fill-rule="evenodd" d="M204.91296515 362.11605472l11.68241823 4.18164166 21.66415817-43.14185619-17.24258713-6.17124708-16.10398927 45.13146161z"/>
    <path fill="rgb(47,46,65)" fill-rule="evenodd" d="M197.88538134 372.3919812l5.4106401-15.16283698 23.00754966 8.23540488c8.09070215 2.90652228 12.30581883 11.8235661 9.42265279 19.93354259l-.17047207.47707152-37.67037048-13.483182z"/>
    <path fill="rgb(159,97,106)" fill-rule="evenodd" d="M280.88236997 373.68931191l12.40619303-.00096396 5.90280697-47.92693436-18.31092493.00096395.00192493 47.92693437z"/>
    <path fill="rgb(47,46,65)" fill-rule="evenodd" d="M277.71769354 369.63249294l24.43259678-.00096396h.00096247c4.12956346-.0000767 8.0900202 1.64285605 11.01011035 4.56736989 2.92009016 2.92451384 4.56061378 6.89104644 4.56067249 11.02700133v.50676138l-40.00361062.00148449-.00073147-16.10165313z"/>
    <path fill="rgb(241,241,241)" fill-rule="evenodd" d="M252.60786684 67.49276625l5.39552938-10.67795402s20.10015013 5.04369797 21.92743126 16.7112397l-27.32296064-6.03328568z"/>
    <path fill="rgb(47,46,65)" fill-rule="evenodd" d="M230.34517962 189.58718823l14.67280161 82.00760302-38.96064343 69.00769077 23.27532708 9.12191677 39.4669008-66.89277104 5.05968633-18.24383354 3.0356193 95.27163924 20.9913941-.63813896 9.62370242-88.96061851-15.43603754-82.70068747-61.72875067 2.02719972z"/>
    <path fill="rgb(63,61,86)" fill-rule="evenodd" d="M258.19836306 208.9736568c-21.55582295 0-35.24200979-4.12933739-35.54861311-4.1946647l-.49634397-.10590022 11.22768169-52.13630903.5054874-48.09110574c0-20.37943012 13.3921822-35.4041804 15.25057986-36.7908602.63333859-2.50388345 2.33682574-4.6006666 4.65586427-5.73079625 4.46710533-2.03002411 9.92591689.40582553 10.15568651.51072323l16.38433652 6.15243066.07708394.22764788c.19740187.58298138 21.77793134 71.53883711 21.77793134 71.53883711s-1.3061344 61.9968379-1.76146767 64.02789346c0-.00002892-30.25120719 4.5921038-42.22822678 4.5921038z"/>
    <ellipse cx="274.762" cy="31.274" fill="rgb(159,97,106)" rx="22.144" ry="22.179"/>
    <g opacity=".2">
      <path fill="rgb(0,0,0)" fill-rule="evenodd" d="M250.0709303 108.37870484l38.74216353 54.13770366 5.7209008-25.28167718-44.46306434-28.85602648z"/>
    </g>
    <path fill="rgb(159,97,106)" fill-rule="evenodd" d="M371.53470155 145.21469747c-2.20571051 1.74750691-5.07097469 2.42675213-7.824804 1.8549636-2.75382932-.57178855-5.11334158-2.3358749-6.44363656-4.8175767l-33.34626842 5.34571506 7.22427346-16.01785643 30.5586286-2.62066894c4.4075445-2.00597568 9.61654625-.39323213 12.12491083 3.7539576 2.50836459 4.14718975 1.5232372 9.51796387-2.2930654 12.50146581h-.0000385z"/>
    <path fill="rgb(241,241,241)" fill-rule="evenodd" d="M332.86133512 130.66826222l11.9817453-1.17699042 3.3205094 16.740062-15.07703754.26701584-.22521716-15.83008742z"/>
    <path fill="rgb(63,61,86)" fill-rule="evenodd" d="M342.68336338 152.06427084l-58.68135078-5.23316355-29.63034893-47.19585076-.0912707-.41710382c-1.73952877-7.97545694 2.69969759-16.0053403 10.37203918-18.76143682 7.6723416-2.75609652 16.19531106.6174427 19.91350882 7.88211237l17.39369437 33.9804654 35.10373222 5.31440578 5.61999582 24.4305714z"/>
    <path fill="rgb(47,46,65)" fill-rule="evenodd" d="M255.89952147 50.5302039l18.3801744.660763c1.12036874.0402741 4.16106987-12.06969458 4.5591075-14.58184135.65073445-3.38336059 3.70743581-5.75750747 7.14122223-5.54660352 1.37587472.13013408 4.84533542-2.44428425 8.42543164-5.49270873 6.79693834-5.78747687 6.44333777-16.65720996-1.02310188-21.54762927 0 0-.30606434-.20050287-.60084858-.36613945-4.71022437-2.64043969-10.22031614-3.52711545-15.61773195-3.59475625-4.89290051-.06128833-9.9245117.55550863-14.2350526 2.8749895-7.72789368 4.15834282-11.84064773 13.2454897-12.20191915 22.0242188-.36127142 8.77872912 2.44870724 17.36277766 5.63736834 25.54796043"/>
    <path fill="rgb(203,203,203)" fill-rule="evenodd" d="M716.65481834 386.6036634H.96246649C.43091092 386.6036634 0 386.17208556 0 385.6397073c0-.53237827.43091092-.96395612.96246649-.96395612H717.0375335c.53155557 0 .96246649.43157785.96246649.96395612 0 .53233513-.81365954.96395612-1.34518166.96395612z"/>
  </g>
</svg>
